<svg preserveAspectRatio="none" width="100%" height="100%" overflow="visible" style="display: block;" viewBox="0 0 33 33" fill="none" xmlns="http://www.w3.org/2000/svg">
<g id="Layers">
<path id="Vector" d="M18.1472 3.25248C17.7827 3.0861 17.3867 3 16.986 3C16.5853 3 16.1893 3.0861 15.8248 3.25248L3.83462 8.71209C3.58635 8.82162 3.37527 9.00103 3.22708 9.22845C3.0789 9.45588 3 9.72151 3 9.993C3 10.2645 3.0789 10.5301 3.22708 10.7575C3.37527 10.985 3.58635 11.1644 3.83462 11.2739L15.8388 16.7475C16.2033 16.9139 16.5993 17 17 17C17.4007 17 17.7967 16.9139 18.1612 16.7475L30.1654 11.2879C30.4137 11.1784 30.6247 10.999 30.7729 10.7715C30.9211 10.5441 31 10.2785 31 10.007C31 9.73551 30.9211 9.46988 30.7729 9.24245C30.6247 9.01503 30.4137 8.83562 30.1654 8.72609L18.1472 3.25248Z" stroke="var(--stroke-0, #4385F6)" stroke-width="2.78931" stroke-linecap="round" stroke-linejoin="round"/>
<path id="Vector_2" d="M3 16C2.99934 16.2679 3.07549 16.5303 3.21941 16.7562C3.36333 16.9821 3.56899 17.162 3.812 17.2745L15.852 22.7506C16.2149 22.915 16.6086 23 17.007 23C17.4053 23 17.7991 22.915 18.162 22.7506L30.174 17.2885C30.4218 17.1771 30.6318 16.9959 30.7785 16.7671C30.9252 16.5383 31.0021 16.2718 31 16" stroke="var(--stroke-0, #4385F6)" stroke-width="2.78931" stroke-linecap="round" stroke-linejoin="round"/>
<path id="Vector_3" d="M3 23C2.99934 23.2679 3.07549 23.5303 3.21941 23.7562C3.36333 23.9821 3.56899 24.162 3.812 24.2745L15.852 29.7506C16.2149 29.915 16.6086 30 17.007 30C17.4053 30 17.7991 29.915 18.162 29.7506L30.174 24.2885C30.4218 24.1771 30.6318 23.9959 30.7785 23.7671C30.9252 23.5383 31.0021 23.2718 31 23" stroke="var(--stroke-0, #4385F6)" stroke-width="2.78931" stroke-linecap="round" stroke-linejoin="round"/>
</g>
</svg>
