<svg preserveAspectRatio="none" width="100%" height="100%" overflow="visible" style="display: block;" viewBox="0 0 1821.15 1343.36" fill="none" xmlns="http://www.w3.org/2000/svg">
<path id="line-15" opacity="0.5" d="M1639.01 962.616C1638.78 961.472 1639.13 954.564 1639.48 950.936C1639.72 952.958 1639.45 957.888 1639.43 960.727C1639.39 963.58 1639.33 964.919 1639.01 962.616ZM1421.59 1015.5C1422 1012.08 1422.41 1008.65 1422.81 1005.24C1420.93 1014.81 1418.72 1027.8 1416.85 1036.74C1416.54 1038.2 1416.65 1034.28 1415.97 1037.75C1415.29 1041.21 1416.25 1040.7 1415.38 1045.77C1414.44 1051.46 1408.74 1077.41 1406.77 1086.5C1401.04 1113.53 1394.82 1141.02 1385.66 1168.54C1383.2 1175.89 1380.41 1183.13 1377.28 1190.2C1391 1153.25 1376.65 1190.28 1371.68 1200.11C1370.21 1202.08 1373.92 1203.57 1351.74 1236.73C1336.15 1256.78 1350.12 1237.89 1322.24 1269.83C1345.58 1246.85 1324.93 1271.6 1304.32 1287.75C1301.24 1291.03 1270.67 1311.24 1255.15 1316.79C1253.51 1317.49 1251.6 1318.36 1249.53 1319.29C1245.45 1321.13 1240.66 1323.24 1236.11 1324.75C1231.49 1326.27 1228.06 1326.9 1221.21 1328.84C1189.54 1337.69 1158.19 1341.9 1126.39 1343.36C1144.84 1340.27 1111.85 1343.2 1110.33 1342.91C1102.79 1342.63 1136.85 1341.23 1123.38 1341.41C1104.48 1342.29 1085.79 1342.19 1067.03 1341.22C1082.37 1342.34 1046.56 1341.84 1040.1 1340.23C1042.55 1343.65 955.841 1326.28 943.09 1321.71C940.375 1320.93 957.748 1327.36 916.919 1314.75C912.502 1313.29 914.352 1313.29 912.021 1312.58C910.612 1312.15 901.739 1311.11 893.159 1306.88C890.148 1305.09 910.804 1312.77 865.919 1294.71C882.647 1305.21 804.211 1266.15 792.356 1253.17C794.85 1255.33 797.393 1257.46 799.981 1259.56C786.996 1249.56 784.527 1247.96 781.593 1245.62C770.037 1236.21 755.401 1220.99 746.369 1209.7C735.985 1196.39 734.688 1197.06 724.978 1179.17C727.047 1183.54 729.321 1187.88 731.682 1192.01C727.881 1186.04 724.29 1179.65 721.157 1173.16L721.488 1173.82C719.196 1169.34 716.723 1164.89 714.11 1160.55C727.45 1180.62 711.704 1155.93 710.338 1154.49C708.597 1151.95 711.563 1155.31 708.629 1151.05C708.3 1150.63 708.342 1151.53 703.659 1145.09C693.58 1131.81 695.525 1133.6 691.023 1128.19C690.563 1127.73 691.805 1129.64 683.487 1120.78C655.807 1093.81 684.148 1120.39 684.973 1121.69C686.164 1123.23 679.615 1111.23 700.078 1137.16C693.418 1128.33 693.239 1126.96 692.472 1125.98C691.896 1125.01 678.522 1111.05 677.608 1110.45C670.523 1104.11 676.115 1110.36 674.695 1109.17C673.724 1108.04 656.682 1092.1 650.989 1090.65C643.082 1082.71 657.486 1092.66 671.42 1105.13C673.787 1106.59 658.506 1092.85 657.523 1092.33C636.357 1076.41 647.161 1086.53 641.964 1083.91C639.219 1082.58 630.844 1075.98 638.338 1082.45C618.269 1069.94 630.771 1076.97 629.567 1076.02C627.698 1074.65 620.289 1070.91 619.397 1070.41C618.095 1069.62 622.968 1071.71 617.765 1068.74C616.888 1068.25 607.983 1064.55 618.805 1070.6C604.15 1062.88 604.979 1064.46 600.428 1060.9C588.994 1059.01 593.353 1056.42 589.198 1054.71C578.043 1050.48 580.706 1053.67 580.084 1053.53C575.907 1052.2 544.592 1045.17 536.793 1045.92C539.936 1044.23 561.772 1048.61 566.64 1049.84C583.192 1052.51 543.729 1044.53 555.923 1045.1C550.806 1044.77 545.701 1044.66 540.686 1044.8C531.616 1043.31 544.534 1042.4 519.952 1043.38C515.983 1044.4 537.314 1042.86 533.028 1043.79C530.453 1044.02 516.356 1044.72 516.136 1045.14C515.862 1045.34 528.544 1044.41 526.559 1045C521.933 1044.63 477.037 1052.2 511.171 1045.58C501.543 1046.89 496.155 1046.11 488.197 1049.11C485.648 1050.1 491.915 1049 493.265 1049.38C494.74 1050.06 490.626 1049.94 470.033 1059.16C468.647 1058.46 486.528 1051.75 487.086 1051.86C487.726 1051.54 483.753 1050.62 483.141 1050.74C481.784 1050.87 464.336 1057.75 451.019 1067.64C441.064 1074.75 431.571 1081.12 427.389 1083.41C432.597 1081.89 389.133 1107.93 383.51 1110.25C382.207 1111.04 387.592 1109.1 386.187 1109.92C377.638 1115.26 351.306 1125.26 338.19 1128.5C330.017 1130.77 326.962 1131.51 325.798 1131.97C324.955 1132.29 325.122 1132.38 324.784 1132.45C318.639 1133.69 323.458 1132.25 319.701 1133.01C314.259 1134.86 274.02 1138.95 271.745 1138.29C271.133 1138.33 277.897 1138.97 268.886 1139.23C267.996 1139.24 267.936 1139 263.142 1138.74C258.443 1138.33 252.339 1138.78 237.375 1135.16C227.694 1132.51 223.761 1130.24 224.307 1130.75C224.635 1131.08 229.34 1133.41 233.966 1135.01C244.089 1138.67 256.009 1139.94 248.152 1139.47C222.705 1133.12 222.43 1131.21 215.656 1127.76C213.327 1126.81 194.634 1111.72 187.345 1092.28C192.948 1105.57 204.205 1119.78 218.558 1127.64C203.09 1120.63 186.096 1092.97 184.648 1082.84C183.333 1077.78 184.951 1081.24 182.662 1070.86C182.431 1069.75 181.405 1067.07 181.15 1068.1C181.102 1069.2 180.633 1073.62 186.259 1088.3C186.286 1091.07 181.854 1076.34 180.872 1070.66C180.697 1069.85 178.528 1065.95 178.539 1058.47C178.536 1057.58 180.036 1061.83 180.481 1060.14C181.08 1058.61 179.646 1050.37 178.831 1027.23C178.78 1025.76 178.17 1030.85 178.107 1029.41C178.009 1028.49 178.706 1016.61 178.751 1015.46C178.75 1014.15 177.916 1019.68 177.9 1018.12C177.807 1010.2 180.633 1000.16 179.396 1016.2C179.959 1010.9 180.633 1005.43 181.358 1000.12C179.309 1005.58 181.625 991.873 182.394 984.517C187.25 938.822 182.785 969.286 183.152 961.381C183.784 948.776 185.347 958.536 186.683 940.109C186.746 938.474 183.31 960.237 188.576 917.405C187.986 923.738 187.344 930.042 186.667 936.4C188.622 932.899 189.029 913.522 189.099 912.12C190.333 895.477 190.16 906.65 190.917 882.174C190.963 879.999 191.563 875.29 191.512 870.681C191.365 851.571 190.09 895.918 188.974 897.249C189.094 897.637 190.99 849.976 190.442 848.635C191.051 841.78 190.842 869.886 191.557 864.561C193.262 862.064 188.17 796.568 182.475 785.953C178.615 772.382 177.442 766.083 175.392 766.92C175.815 762.412 172.817 760.03 172.005 758.509C161.411 740.278 161.125 740.468 148.391 727.582C145.54 724.919 143.388 722.192 142.204 721.355C141.508 720.877 142.275 722.421 138.926 720.014C136.749 718.449 130.857 713.806 123.285 709.083L124.992 710.036C111.978 703.219 99.3814 694.31 97.9379 692.999C95.1833 690.851 114.588 703.532 111.429 700.654C97.1302 691.983 84.2063 682.644 71.7212 671.099C66.6335 666.309 69.5842 668.418 67.4209 666.335C66.2322 665.621 49.6058 648.008 50.304 648.682C50.8599 649.79 63.5142 664.72 76.0266 675.479C88.409 686.412 99.9708 694.128 91.635 688.776C88.3371 686.692 78.6561 677.446 79.4899 679.776C28.0622 636.897 -5.73741 569.365 1.27463 498.944C-2.02138 539.228 8.24446 583.869 29.1376 618.918C31.7753 623.887 42.3752 639.405 41.675 637.103C21.1105 609.558 4.44095 568.34 2.25718 534.414C2.16891 533.335 3.13631 537.232 2.85034 533.191C1.87798 525.801 1.5296 500.802 2.69226 496.652C2.70619 495.942 2.42131 510.152 3.23796 505.875C5.3071 495.034 2.93093 491.906 4.73089 482.41C4.26335 474.57 24.8335 427.742 34.32 418.261C38.3194 412.659 31.8625 419.788 25.9636 428.794C19.9406 437.753 15.0285 448.622 15.4731 446.733C29.0862 414.386 57.7258 388.141 87.5949 374.88C88.1235 374.645 83.3223 376.155 89.9293 373.097C101.756 367.96 105.039 368.113 110.968 366.457C117.315 364.372 139.658 360.448 142.645 360.763C143.021 360.754 138.603 362.087 137.942 362.21C128.559 363.806 124.582 363.694 123.767 363.813C120.411 364.464 117.377 365.606 114.326 366.387C109.272 367.713 106.401 368.138 100.021 370.363C95.5241 372.003 100.104 371.058 95.7781 372.689C94.1368 373.026 76.8424 379.416 76.2694 382.034C74.9247 379.922 143.234 353.828 188.124 362.395C205.812 364.114 219.524 365.061 223.349 365.201C212.917 364.254 202.783 363.217 192.364 362.053C213.357 364.544 238.683 364.746 240.3 366.841C317.764 371.251 397.129 370.718 468.899 351.253C481.662 347.574 475.1 351.416 495.333 343.652C490.139 345.219 484.438 346.773 479.207 348.003C490.679 345.99 533.682 325.975 538.424 320.183C539.11 319.542 539.743 318.099 548.02 310.807C555.005 304.295 556.595 303.547 560.05 299.851C562.909 296.71 565.496 292.662 566.22 291.661C566.789 290.888 567.463 290.882 568.787 288.973C572.8 282.846 568.53 287.274 573.516 281.716C572.765 283.326 571.972 284.914 571.135 286.479C575.882 279.016 581.056 267.745 576.142 280.097C575.201 282.183 575.598 280.192 574.842 281.712C567.237 296.436 560.388 303.083 557.769 306.203C554.964 309.244 555.885 308.502 558.724 305.605C564.62 300.062 575.732 284.059 579.132 272.791C583.452 267.882 587.936 233.349 587.047 231.798C587.276 230.165 587.871 236.246 588.425 228.281C590.122 226.571 581.589 177.45 585.597 194.9C586.872 198.554 589.512 222.369 589.148 227.991C591.373 214.312 582.84 183.368 581.473 179.554C577.985 164.853 589.85 207.204 581.753 174.405C574.502 149.788 580.514 173.256 577.123 163.888C575.358 158.13 565.886 130.714 564.391 131.729C560.314 122.735 563.357 127.699 562.931 126.558C562.704 125.662 553.434 106.89 550.809 101.284C550.492 100.571 552.326 102.39 552.021 101.642C551.551 100.279 542.146 82.9453 541.56 82.1852C541.273 81.759 542.97 86.3175 541.867 84.6677C540.484 82.4204 531.53 66.4624 530.7 65.5681C529.836 64.5573 541.294 84.1698 538.773 81.4164C533.889 72.1387 524.393 57.3038 519.866 51.3216C520.971 52.717 526.631 61.922 528.389 65.0489C526.609 64.1665 514.614 44.746 519.462 50.8281C516.534 47.0782 518.027 49.9578 516.209 47.9419C515.747 47.418 512.061 41.6743 511.157 40.6569C511.042 40.5416 514.476 46.7278 513.512 45.6615C511.911 43.8168 500.316 25.9903 499.287 24.3725C496.766 20.0429 506.945 34.5303 508.064 35.4226C508.294 35.5874 500.813 22.603 500.697 22.3285C501.015 21.1183 509.703 35.3602 509.301 33.3046C507.215 29.8078 505.075 26.2778 502.881 22.715C512.755 35.6457 527.249 59.7684 531.856 65.9433C519.561 45.5695 506.635 26.3577 508.211 24.8679C508.989 24.397 515.014 32.577 514.97 32.1146C514.895 30.4584 506.274 19.1092 505.965 18.6195C505.76 18.2281 505.687 18.0347 505.726 18.0084C505.726 18.0084 505.726 18.0084 505.726 18.0084C506.216 17.7953 517.665 34.4401 518.282 35.0923C519.523 36.2874 516.041 28.0078 516.321 27.8112C516.6 28.0599 524.546 39.6806 522.492 35.3602C520.477 31.0248 513.525 20.4887 513.298 20.0631C512.345 17.8839 524.679 36.042 525.088 36.394C525.396 36.638 519.65 26.5008 519.59 26.0842C519.607 25.7385 524.834 32.9688 527.187 35.5287C528.964 37.4523 525.214 30.9358 525.984 32.0068C526.588 32.7507 537.354 49.9633 538.02 51.0238C538.923 52.2784 536.831 47.7792 537.319 48.3191C538.036 49.0968 541.355 54.9847 541.071 54.1244C540.894 53.3393 528.858 30.4288 529.338 30.3983C530.321 30.2305 542.84 53.8907 532.442 30.9979C532.375 30.8423 528.821 25.7759 528.735 25.6141C527.149 22.0348 538.92 38.3124 525.34 17.8376C550.821 55.2665 529.621 21.94 534.458 26.761C536.369 28.6101 545.771 43.226 545.971 43.4717C545.675 41.6127 542.087 36.8587 541.462 35.2154C540.966 33.9938 550.18 47.5512 548.664 44.1603C547.844 42.2406 538.939 28.1649 538.6 27.6122C535.434 21.8142 540.215 28.3513 539.71 26.955C539.405 26.0423 533.894 17.5061 533.756 17.2472C533.625 16.8596 541.867 27.9528 543.582 30.1396C544.937 31.8263 540.935 24.8118 541.824 26.0198C547.063 32.9788 556.376 51.344 548.07 33.5469C547.61 32.534 543.837 26.6529 543.737 26.4575C541.976 22.4919 548.835 33.2058 550.584 35.0941C553.461 38.0141 543.071 22.2753 551.927 35.3129C546.172 24.9258 542.828 19.7123 534.843 7.97011C556.291 39.938 564.929 50.0102 542.321 14.3704C549.682 25.7886 549.872 23.7713 552.031 27.1279C553.2 28.8484 562.822 47.2038 560.461 37.675C560.191 36.4813 553.288 26.2134 555.945 29.0852C571.244 54.4881 556.766 29.4119 556.739 29.2748C559.381 28.9766 592.732 90.5714 597.454 103.015C603.485 115.508 609.676 127.611 610.737 130.43C614.354 140.047 610.716 132.311 611.283 134.547C611.967 136.223 622.6 164.982 622.494 166.152C623.755 172.064 621.403 166.341 621.521 166.958C623.715 174.394 631.336 213.778 630.367 226.486C631.167 226.176 629.486 202.218 631.415 217.082C633.247 234.596 630.263 235.229 630.278 235.767C632.299 322.07 548.318 381.274 478.841 396.8C480.411 398.498 526.421 381.324 527.531 379.905C534.272 380.424 455.243 406.451 445.059 405.6C452.449 404.461 460.107 403.094 467.614 401.545C454.9 406.291 426.682 409.624 408.081 412.367C402.058 413.308 413.751 412.429 413.508 412.476C406.663 413.954 396.115 414.667 403.954 413.037C387.839 415.529 389.903 414.477 377.426 415.461C376.78 415.503 382.178 415.687 372.342 416.654C367.707 417.199 342.89 418.419 339.614 418.937C338.259 419.209 350.906 420.98 352.334 418.965C379.52 418.433 360.966 417.637 371.462 417.025C373.155 416.835 369.168 418.559 395.879 415.499C390.93 418.128 360.466 418.956 355.094 419.302C344.341 420.453 388.854 418.826 396.977 416.083C393.352 417.964 400.082 416.028 410.028 414.849C421.018 413.491 416.291 414.555 422.18 413.728C438.066 411.298 431.452 411.291 444.881 409.844C431.379 409.411 467.603 405.139 477.964 402.74C461.358 407.347 444.291 410.93 427.34 413.707C428.321 413.713 429.3 413.717 430.277 413.719C425.883 414.4 421.444 415.034 416.96 415.624C417.657 415.378 418.353 415.13 419.048 414.882C395.961 418.968 390.521 418.031 388.558 418.274C364.558 420.412 336.608 421.551 312.621 421.613C309.071 421.572 311.228 422.78 285.112 421.588C276.695 421.151 284.68 420.595 275.102 420.449C263.133 422.135 263.481 420.463 259.946 420.326C249.839 419.903 243.543 420.049 242.606 420.007C230.276 419.434 211.807 418.061 198.263 416.965C198.005 416.951 205.059 418.183 196.202 417.243C194.999 417.112 190.12 416.274 183.135 415.158C173.284 413.459 159.342 412.258 146.784 414.287C152.173 413.86 157.443 413.731 162.909 413.847C159.697 413.696 146.962 414.295 137.045 416.507C127.152 418.58 119.837 421.658 124.796 420.424C130.77 418.797 145.966 414.583 147.958 416.24C140.964 416.547 117.285 420.397 100.16 431.676C82.3801 442.442 72.2047 459.527 70.7007 461.865C70.2345 462.504 72.2935 458.105 71.6724 458.991C70.8769 459.462 63.3555 474.609 62.7196 476.855C62.0888 478.063 64.5746 470.918 64.2076 471.42C63.3851 471.581 56.6842 492.339 57.6348 493.884C58.1153 488.41 63.0651 474.318 61.1887 481.935C60.9287 482.89 59.1131 487.792 58.9444 489.037C58.1418 494.758 59.2698 489.071 61.5963 481.817C63.8584 474.464 68.0538 465.91 69.3504 463.739C59.2901 481.557 52.9726 515.75 59.1416 541.306C60.4308 551.768 55.7888 526.109 57.1981 537.896C61.148 562.42 59.1872 544.176 59.3795 544.963C60.7393 550.798 64.8087 571.878 67.2621 570.937C70.5832 579.436 68.8679 576.923 75.2096 588.19C74.5387 586.656 73.8606 585.054 73.2294 583.481C80.1592 595.82 96.8977 621.451 95.5645 619.775C90.6675 615.689 81.9628 602.13 81.3385 600.958C80.4529 599.284 74.1539 596.217 66.8023 575.221C64.3054 571.382 67.3662 579.561 70.7011 586.218C74.0165 592.861 77.0497 598.093 71.534 589.626C76.084 602.906 114.921 645.309 123.587 647.959C124.497 648.412 121.457 644.675 132.771 653.154C138.238 657.146 124.607 648.271 127.009 650.24C128.79 651.766 136.559 657.451 148.793 663.867L150.107 664.601C172.308 677.481 201.866 703.933 217.652 734.622C234.082 764.95 238.824 794.716 240.571 805.594C240.858 807.51 240.27 806.878 240.542 808.759C241.539 814.515 244.163 835.398 244.05 845.582C244.243 824.382 245.746 865.522 244.764 875.665C243.96 891.214 243.025 890.164 242.418 896.804C240.035 922.403 237.127 961.222 233.109 979.885C235.09 979.101 228.441 1012.49 228.177 1027.03C227.64 1038.65 229.852 1053.85 230.054 1039.44C229.917 1058.47 235.01 1076.14 241.62 1080.64C242.756 1081.55 240.78 1080.73 242.861 1082.24C243.084 1082.37 243.57 1082.15 245.584 1083.18C250.003 1085.33 254.529 1085.99 256.94 1086.38C259.532 1086.76 260.785 1086.92 261.165 1087.09C261.978 1087.41 259.612 1087.66 262.539 1087.99C263.115 1088.05 263.679 1088.1 264.228 1088.13C266.998 1088.33 269.158 1088.38 270.822 1088.38C268.641 1088.43 266.432 1088.44 264.222 1088.4C246.186 1088.37 239.448 1081.3 237.509 1078.45C237.891 1079.71 240.072 1082.83 244.5 1085.07C249.046 1087.48 256.387 1088.81 264.213 1088.82C269.776 1088.87 274.602 1088.66 277.611 1088.59C278.026 1088.58 276.618 1089.32 277.038 1089.3C277.047 1089.3 277.056 1089.3 277.065 1089.3C281.517 1089.66 310.256 1085.25 304.192 1085.24C302.585 1085.28 289.343 1087.74 273.885 1088.29C278.061 1087.99 274.907 1087.35 275.644 1087.29C284.491 1086.86 306.71 1084.45 314.585 1082.6C314.768 1082.57 314.93 1082.53 315.073 1082.49C316.254 1082.17 316.096 1081.8 316.342 1081.75C322.985 1080.25 320.658 1082.3 327.063 1078.96C335.028 1077.53 323.78 1081.21 315.182 1082.99C309.932 1084.13 305.618 1084.94 306.646 1085.17C307.054 1085.26 310.326 1084.8 315.355 1083.79C336.059 1081.82 385.369 1053.6 384.373 1052.09C384.703 1052.05 385.813 1051.58 388.003 1050.44C392.879 1048.08 413.227 1034.12 416.612 1031.33C417.18 1030.87 416.189 1029.97 416.92 1029.44C417.352 1029.13 419.115 1027.95 421.672 1026.23C431.055 1019.41 451.722 1008.97 461.134 1005.09C454.335 1007.53 447.713 1010.36 441.28 1013.59C480.72 995.147 475.381 999.695 461.281 1003.59C460.598 1003.85 459.918 1004.06 459.267 1004.31C448.587 1008.07 435.759 1014.95 435.542 1015.02C435.055 1015.03 450.994 1005.63 467.013 1000.41C482.917 994.936 497.84 993.067 490.929 994.888C488.876 994.712 455.901 1004.42 472.391 1000.12C475.186 999.036 496.521 993.943 497.725 994.158C501.573 993.906 491.703 995.602 481.884 998.566C472.054 1001.42 462.443 1005.61 465.326 1005.01C475.858 1000.21 490.42 996.968 503.418 995.091C509.335 994.231 510.742 993.517 511.477 993.423C522.475 992.418 516.342 993.587 520.004 993.35C521.946 992.944 543.604 991.958 539.419 993.943C609.113 1002.6 559.666 990.216 515.45 992.78C529.334 990.632 556.457 992.998 568.188 995.377C572.431 996.126 570.055 994.918 577.213 996.318C592.969 996.956 657.507 1026.19 671.129 1038.47C661.707 1032.51 664.057 1034.9 671.202 1039.64C678.297 1044.47 672.925 1039.56 674.362 1040.43C676.283 1040.88 707.494 1066.43 711.936 1071.51C689.226 1051.41 694.059 1056.38 712.747 1073.91C709.942 1071.47 707.097 1069.09 704.214 1066.77C715.879 1076.32 736.036 1100.7 741.269 1107.62C742.147 1108.67 739.633 1104.41 740.123 1105C745.319 1110.66 759.235 1132.71 759.821 1133.79C760.544 1134.56 755.058 1124.83 757.476 1128.2C757.996 1128.91 763.04 1138.42 768.131 1147.73C768.507 1148.41 768.784 1148.87 768.991 1149.17L769.239 1149.66C769.904 1150.59 769.779 1149.47 770.074 1150.01C773.286 1155.52 770.383 1152.77 776.699 1162.8C781.578 1170.06 786.174 1174.8 794.204 1184.14C769.959 1152.26 789.489 1179.48 802.34 1190.94C804.422 1192.72 803.102 1190.66 815.295 1201.73C787.718 1179.83 821.803 1209.61 830.216 1214.39C830.634 1214.68 830.406 1215.41 834.212 1218.01C834.543 1218.22 834.314 1217.53 837.949 1219.87C873.461 1241.05 850.644 1227.74 857.183 1232.19C859.909 1234.1 878.398 1242.71 883.507 1244.84C884.661 1245.35 883.952 1245.59 888.432 1247.54C896.364 1250.97 903.896 1253.38 909.259 1255.36C909.896 1255.57 909.613 1256.4 920.033 1259.82C922.953 1260.76 926.313 1261.61 922.255 1259.99C908.726 1254.76 882.879 1245.56 868.909 1237.43C855.956 1230.42 897.78 1250.53 900.406 1250.86C901.236 1251.2 892.589 1248.1 901.206 1251.68C908.514 1254.71 922.607 1258.47 933.878 1262.3C934.729 1262.62 943.469 1266.46 943.049 1266.38C942.633 1266.36 928.622 1262.24 930.542 1263.16C930.779 1263.3 939.641 1266.07 940.742 1266.63C942.073 1267.34 945.126 1271.27 947.048 1271.89C951.965 1273.46 948.916 1271.91 952.101 1272.84C958.872 1274.97 982.856 1281.39 983.889 1280.46C979.889 1279.56 975.905 1278.61 971.942 1277.63C994.181 1282.49 984.813 1279.87 987.997 1280.39C991.437 1280.86 990.297 1281.57 997.832 1283.07C999.438 1283.61 1031.24 1288.25 1030.73 1287.6C1013.04 1285.86 1019.73 1285.58 1018.92 1285.47C1015.86 1284.95 1011.84 1284.96 1007.72 1284.26C978.844 1279.02 1008.15 1283.31 1001.37 1281.83C999.041 1281.34 994.284 1280.98 993.298 1280.75C990.093 1280.04 990.176 1279.35 988.024 1278.98C983.005 1278.08 988.639 1280.23 988.237 1280.19C983.616 1279.95 966.337 1275.22 977.422 1276.66C970.999 1274.81 969.97 1275.88 964.934 1274.11C954.977 1270.55 970.199 1274.69 974.387 1275.42C989.462 1278.13 993.779 1279.66 1015.21 1282.93C1022.94 1284.07 1032.2 1284.61 1035.78 1284.98C1038.02 1285.33 1059.28 1289.49 1060.18 1286.04C1068.45 1287.01 1081.48 1289.86 1090.06 1289.88C1097.81 1289.9 1095.35 1288.64 1096.07 1288.61C1097.19 1288.56 1106.46 1288.62 1109.61 1288.36C1113.3 1288.08 1111.46 1287.68 1117.28 1287.3C1131.66 1286.24 1131.43 1287.31 1132.9 1287.33C1150.11 1286.91 1142.5 1285.7 1146.28 1285.23C1149.9 1285.47 1198.89 1278.08 1208.15 1273.9C1204.2 1275.28 1200.26 1276.57 1196.27 1277.79C1203.67 1276.82 1210.99 1273.34 1211.48 1274.62C1212.18 1272.4 1224.36 1269.53 1229.66 1267.59C1230.26 1267.39 1230.77 1267.2 1231.18 1267.03C1232.73 1266.38 1232.47 1266.08 1234.4 1265.25C1242.07 1262.27 1258.35 1253 1261.83 1250.02C1269.49 1243.89 1263.15 1248.26 1254.1 1253.42C1245.06 1258.69 1232.88 1263.61 1231.07 1264.21C1238.92 1262.85 1274.94 1237.78 1257.7 1248.22C1255.07 1249.83 1250.94 1253.54 1249.45 1254.43C1239.33 1260.37 1246.97 1255.11 1246.12 1255.49C1244.72 1256.17 1238.27 1260.4 1236.35 1261.1C1235.71 1261.3 1239.39 1259 1229.2 1263.2C1234.28 1261.35 1261.59 1246.29 1264.42 1242.89C1265.4 1241.68 1257.73 1247.11 1279.04 1230.23C1278.7 1230.34 1278.37 1230.44 1278.03 1230.55C1288.98 1220.06 1298.67 1207.98 1306.88 1194.87C1306.3 1196.49 1302.13 1204.19 1307.97 1194.88C1311.22 1189.45 1308.08 1193.02 1308.37 1192.52C1309.55 1190.39 1320.7 1172.58 1328.28 1149.46C1338.8 1118.26 1347.15 1078.19 1349.59 1066.2C1351.1 1058.93 1354.45 1038.31 1354.72 1036.73C1356.47 1027.39 1362.98 993.982 1364.12 987.209C1364.77 983.343 1363.65 986.303 1364.02 983.895C1364.06 983.647 1364.11 983.35 1364.18 982.996C1364.99 978.908 1364.81 983.267 1365.07 982.058C1363.94 971.088 1393.46 899.587 1407.98 887.502C1399.56 895.136 1375.29 944.999 1377.47 944.631C1377.53 944.388 1383.18 932.262 1384.25 929.723C1386.58 925.845 1392.45 911.257 1397.47 904.318C1398.08 903.581 1396.59 907.046 1405.33 894.815C1408.36 890.621 1415.99 879.293 1426.04 869.994C1432.5 862.638 1454.98 841.12 1481.44 827.034C1507.23 812.188 1537.82 806.847 1541.96 806.293C1542.05 806.046 1526.03 808.402 1536.71 806.172C1551.67 803.858 1538.1 806.693 1555.95 806.151C1557.21 806.206 1570.63 805.894 1584.66 810.37C1598.87 814.431 1611.35 824.575 1611.95 825.187C1618.96 831.055 1613.38 824.291 1604.44 818.163C1595.47 811.833 1583.5 808.17 1583.95 808.272C1584.73 808.352 1595.37 811.271 1605.13 817.653C1614.99 823.771 1622.51 832.902 1622.97 833.575C1623.51 834.195 1617.71 828.02 1614.86 825.992C1611.7 824.251 1614.94 824.196 1627.4 841.257C1625.01 837.242 1621.99 833.096 1618.76 829.472C1632.42 844.75 1630.53 847.547 1632.87 851.592C1638.51 864.337 1643.3 878.401 1641.75 897.293C1641.3 902.175 1640.71 894.091 1640.62 894.724C1640.15 900.446 1641.67 908.267 1639.51 916.38C1639.34 916.947 1640.43 901.055 1637.87 922.849C1637.56 924.964 1637.2 927.466 1636.79 930.382C1637.19 928.414 1637.6 926.422 1638 924.406C1637.51 929.106 1634.1 956.772 1634.6 958.754C1634.48 963.012 1634.33 963.017 1634.09 963.324C1633.89 963.491 1633.62 964.142 1634.12 967.013C1634.37 965.193 1635.16 968.374 1635.69 969.199L1635.96 969.88C1638.85 977.287 1642.53 986.46 1641.59 985.731C1644.38 989.564 1655.47 1015.09 1662.63 1024.93C1666.81 1031.63 1676.98 1042.42 1678.59 1043.75C1680.41 1045.59 1679.23 1045.82 1682.64 1049C1683.64 1050.05 1694.61 1057.85 1703.6 1060.09C1705.31 1060.66 1709.19 1062.5 1705.59 1062.52C1699.28 1062.95 1688.23 1055.66 1687.96 1056.24C1687.79 1056.69 1691.72 1059.36 1696.24 1061.06C1700.75 1062.85 1705.8 1063.44 1707.96 1063.59C1717.99 1064.11 1720.67 1062.81 1720.34 1063.49C1720.1 1063.95 1717.11 1064.87 1717.43 1064.95C1718.96 1065.89 1731.39 1061.69 1731.92 1061.17C1734.22 1060.54 1725.55 1064.84 1725.57 1065.13C1725.48 1066.12 1738.4 1061.56 1735.68 1062.95C1731.76 1065.61 1719.84 1068.28 1719.21 1068.15C1709.91 1070.14 1722.98 1069.83 1727.12 1068.78C1728.33 1068.62 1723.87 1070.38 1724.83 1070.13C1739.61 1065.86 1727.22 1067.56 1736.62 1063.52C1744.88 1059.28 1734.77 1065.78 1735.04 1065.56C1735.52 1065.59 1745.49 1060.04 1747.07 1059.15C1747.5 1058.95 1741.7 1063.56 1735.49 1067.06C1729.35 1070.66 1722.83 1072.87 1723.51 1073.1C1732.35 1070.69 1740.97 1066.18 1749.03 1060.48C1750.3 1061.09 1737.92 1067.7 1736.54 1068.17C1734.03 1069.64 1741.55 1066.5 1741.34 1066.89C1741.4 1067.18 1732.96 1072.23 1740.97 1068.52C1743.61 1067.2 1748.91 1063.61 1758.24 1057.18C1742.81 1069.52 1739.78 1069.91 1741.81 1069.53C1743.69 1068.96 1749.94 1065.37 1750.47 1065.18C1751.73 1064.82 1736.09 1075.98 1755.41 1063.06C1757.41 1064.05 1755.37 1064.03 1750.07 1067.9C1746.77 1070.23 1749.14 1069.06 1749.22 1069.21C1749.18 1069.17 1747.23 1071.6 1733.54 1077.07C1735.72 1078.08 1756.58 1066.01 1757.41 1064.73C1758.38 1064.13 1754.21 1067.68 1755.89 1066.67C1775.24 1054.1 1762.21 1063.1 1768.14 1059.8C1768.85 1059.64 1785 1044.76 1773.03 1056.39C1750.25 1077.39 1736.67 1079.38 1732.91 1084.02C1755.8 1077.81 1775.37 1056.12 1779.93 1051.41C1787.25 1043.85 1780.1 1052.04 1781.1 1051.23C1781.47 1051 1787.7 1044.33 1787.82 1044.2C1794.26 1041.24 1759.32 1074.05 1744.73 1079.54C1748.45 1078.02 1752.23 1076.17 1755.72 1074.27C1751.14 1077.28 1746.3 1080.04 1741.23 1082.36C1764.82 1070.48 1742.66 1082.77 1736.69 1086.43C1735.44 1087.38 1751.83 1080.1 1733.17 1088.54C1747.42 1083.41 1743.23 1085.54 1754.77 1078.41C1755.33 1079.75 1727.71 1094.73 1714 1094.21C1736.61 1092.29 1740.24 1087.45 1743.7 1086.04C1746.97 1083.86 1750.33 1082.95 1765.51 1072.78C1770.41 1068.07 1756.44 1078.49 1757.44 1077.41C1761.48 1074.21 1771.75 1067.88 1780.6 1056.65C1782.01 1054.82 1774.55 1061.02 1784.67 1050.9C1785.75 1049.87 1792.57 1043.56 1792.44 1043.73C1792.23 1044.97 1785.77 1051.6 1785.72 1051.96C1785.64 1052.47 1792.53 1044.82 1792.49 1044.89C1793.36 1045.12 1786.97 1051.37 1788.03 1050.55C1790.37 1048.88 1816.08 1022.95 1783.37 1057.74C1809.68 1028.1 1787.15 1053.97 1775.38 1064.49C1772.4 1067.2 1772.08 1068.13 1767.58 1071.87C1762 1076.54 1754.36 1081.11 1750.98 1083.01C1749.19 1084.07 1753.58 1081.96 1754.69 1081.54C1755.62 1080.94 1754.17 1083.54 1737.74 1090.13C1755.73 1085.37 1779.21 1064.62 1790.61 1052.91C1814.34 1029.01 1776.38 1071.71 1770.03 1074.56C1768.75 1075.62 1773.5 1072.67 1772.65 1073.37C1771.99 1075.24 1742.62 1093.2 1738.59 1093.75C1735.58 1095.62 1750.61 1088.73 1751.65 1088.4C1752.11 1088.39 1742.9 1093.56 1735.39 1096.1C1727.75 1098.66 1722.8 1100.02 1734.53 1096.99C1751.22 1092.85 1773.33 1074.38 1777.55 1072.33C1760.72 1086.7 1739.54 1099.98 1713.64 1101.38C1727.65 1101.38 1741.19 1097.46 1753.02 1091.85C1729.65 1104.92 1700.16 1107.08 1675.33 1095.44C1690.04 1102.82 1697.78 1103.21 1698.7 1103.79C1699.79 1104.15 1694.78 1103.8 1687.91 1101.89C1673.64 1098.58 1656.21 1085.56 1655.97 1085.23C1655.12 1085.57 1676.02 1100.76 1680.82 1101.84C1653.76 1096.15 1614.75 1043.45 1637.36 1074.26C1632.7 1068.86 1622.19 1056.35 1622.35 1056.53C1621.84 1058.97 1647.05 1086.49 1642.76 1082.32C1636.84 1077.89 1631.1 1069.78 1624.78 1061.34C1596.85 1019.44 1599.66 1030.32 1582.99 989.694L1583.27 990.433C1582.08 987.462 1581.14 984.413 1580.43 981.361C1580.65 982.937 1580.94 984.577 1581.32 986.259C1573.05 952.603 1580.64 934.584 1582.44 915.161C1586.63 887.873 1580.67 868.757 1568.91 865.324C1564.73 864.198 1553.9 862.897 1539.89 866.685C1526.12 870.156 1511.36 877.86 1502.2 883.662C1498.27 885.63 1480.56 898.517 1479.42 899.808C1476.88 901.6 1489.8 890.605 1483.63 895.173C1481.68 895.403 1455.56 922.449 1458.42 921.368C1461.01 918.041 1469.59 908.082 1471.31 906.766C1476.84 902.431 1461.17 916.105 1447.97 936.881C1434.17 957.409 1426.12 985.028 1424.85 994.968C1424.48 997.145 1424.25 998.6 1424.19 999.16C1424.55 997.788 1424.92 996.417 1425.29 995.048C1425.65 993.78 1426.03 992.522 1426.42 991.273C1426.13 992.543 1425.86 993.82 1425.6 995.105C1424.27 1001.89 1422.93 1008.68 1421.59 1015.5ZM1639.29 934.005C1639.32 939.096 1637.24 950.828 1637.3 956.478C1637.23 960.554 1638.31 965.017 1639.04 966.383C1639.39 967.145 1639.57 967.347 1639.47 967.48C1639.37 967.584 1639.04 967.763 1638.23 967.579C1636.53 963.695 1637.36 948.351 1639.29 934.005ZM1451.16 844.361C1460.86 837.571 1454.34 844.239 1446.55 849.787C1445.71 850.446 1438.39 853.927 1451.16 844.361ZM1574.74 806.105C1574.06 805.79 1561.6 804.307 1561.15 804.444C1555.76 803.951 1562.11 803.819 1568.64 804.662C1574.97 805.451 1581.53 807.283 1574.74 806.105ZM1289.87 1220.03C1296.16 1212.54 1290.52 1217.06 1286.92 1221.91C1286.69 1222.22 1289.45 1220.52 1289.87 1220.03ZM1294.4 1214.74C1300.39 1209.71 1306.9 1195.4 1300.1 1205.56C1299.49 1206.57 1294.17 1215 1294.4 1214.74ZM1487.24 822.166C1486.28 823.126 1475.2 828.857 1470.83 831.572C1470.63 831.056 1482.61 824.41 1487.24 822.166ZM1349.82 1068.24C1350.2 1068.81 1357.18 1033.24 1357.06 1030.65C1356.27 1036.39 1349.62 1067.81 1349.82 1068.24ZM1327.49 1155.48C1327.66 1155.12 1328.61 1152.48 1329.42 1149.84C1330.35 1146.86 1331.19 1143.84 1330.96 1143.96C1330.29 1145.59 1329.56 1147.7 1328.91 1149.68C1327.52 1153.95 1326.4 1157.81 1327.49 1155.48ZM1218.76 1267.05C1218.18 1267.24 1227.11 1267.01 1207.2 1271.52C1204.27 1272.16 1214.36 1268.58 1213.29 1268.79C1211.14 1269.3 1209.44 1269.72 1208.08 1270.1C1217.06 1267.35 1226.23 1263.84 1227.07 1263.65C1231.38 1262.73 1219.1 1266.98 1218.76 1267.05ZM1129.75 1284.94C1127.7 1285.48 1114.7 1285.86 1111.68 1285.74C1111.16 1285.72 1113.37 1284.73 1107.47 1284.91C1102.76 1285.03 1109.83 1285.95 1100.61 1285.86C1091.28 1285.69 1103.75 1285.01 1102.92 1284.94C1101.86 1284.93 1087.37 1285.23 1087.86 1284.63C1088.16 1284.26 1103.68 1284.68 1107.43 1284.47C1112.32 1284.25 1106.39 1283.7 1114.55 1283.63C1119.66 1283.56 1116.87 1284.89 1117.95 1284.91C1118.85 1285.01 1136.68 1283.24 1129.73 1284.93C1129.74 1284.93 1129.74 1284.93 1129.75 1284.94ZM1205.61 1270.86C1206.29 1270.63 1207.1 1270.38 1208.08 1270.1C1207.25 1270.36 1206.43 1270.62 1205.61 1270.86ZM1642.02 900.698C1642.54 894.18 1642.69 913.532 1640.99 920.459C1640.8 920.412 1642.2 902.111 1642.02 900.698ZM1197.29 1274.1C1183.24 1277.03 1193.58 1274.47 1205.61 1270.86C1201.78 1272.16 1201.93 1273.04 1197.29 1274.1ZM1384.25 929.723C1383.85 930.365 1383.51 930.738 1383.27 930.693C1384.35 929.003 1384.56 928.909 1384.25 929.723ZM1369.49 968.976C1366.61 983.08 1373.98 954.762 1373.83 954.919C1373.52 954.878 1369.5 968.38 1369.49 968.976ZM1281.24 1229.06C1281.97 1228.36 1272.74 1240.83 1287.17 1223.82C1278.8 1232.22 1287.29 1223.04 1286.99 1223.01C1286.42 1223.18 1272.65 1237.38 1268.93 1239.68C1266.97 1242.68 1278.93 1231.34 1281.23 1229.08C1281.23 1229.07 1281.24 1229.07 1281.24 1229.06ZM962.472 1268C965.499 1268.2 974.597 1270.61 980.822 1271.99C977.78 1271.93 968.642 1269.63 962.472 1268ZM187.543 416.656C185.995 416.531 184.49 416.406 183.029 416.279C164.515 414.771 154.915 415.513 153.932 415.091C152.818 414.912 160.58 413.371 178.237 414.953C178.563 414.984 180.847 415.28 183.087 415.658C186.184 416.152 189.12 416.669 187.543 416.656ZM112.579 633.503C114.744 636.739 105.198 628.765 99.9126 622.4C98.6885 620.992 94.9301 615.324 100.28 620.854C99.1368 621.54 107.28 630.555 112.579 633.503ZM1189.53 1276.58C1185.65 1278.19 1172.7 1280.17 1165.95 1281.02C1169.98 1279.91 1183.7 1277.73 1189.53 1276.58ZM75.6715 452.504C73.3593 455.432 72.7622 458.052 73.1697 457.551C74.9626 455.335 78.6511 449.477 75.6715 452.504ZM1228.8 1265.08C1228.85 1265.09 1228.82 1265.13 1228.74 1265.19C1227.68 1266.12 1213.77 1271.17 1212.49 1270.47C1215.76 1269.64 1227.53 1265.39 1228.7 1265.09C1228.75 1265.08 1228.79 1265.07 1228.8 1265.08ZM974.07 1271.14C976.69 1271.99 962.794 1269.07 958.717 1267.72C959.143 1267.43 972.353 1270.65 974.07 1271.14ZM56.0553 510.082C55.6992 513.601 55.8487 522.601 56.3258 523.556C56.7132 524.769 56.3412 511.706 56.0553 510.082ZM620.893 147.6C620.994 147.191 627.288 163.396 628.95 172.019C630.464 179.73 628.86 173.611 626.446 165.329C624.235 157.704 620.957 147.937 620.893 147.6ZM101.638 428.957C111.411 424.521 100.568 429.517 101.499 430.1C107.403 426.153 124.552 419.762 112.535 423.599C110.238 424.349 104.502 427.283 101.638 428.957ZM93.2801 434.096C92.5055 434.952 87.1835 440.427 92.2518 436.287C94.5634 434.441 98.066 430.81 93.2801 434.096ZM632.795 262.829C630.882 269.989 633.982 256.973 634.896 242.251C636.032 227.465 634.617 210.766 634.6 210.123C634.586 209.183 634.592 208.562 634.615 208.206C634.223 205.996 632.554 194.181 632.866 192.65C633.475 196.286 634.764 205.947 634.765 207.048C634.787 207.531 634.795 207.89 634.792 208.139C637.138 211.96 635.118 259.966 632.795 262.829ZM575.257 355.742C587.206 344.43 590.141 343.357 589.285 344.489C576.708 357.348 584.294 348.261 583.865 348.624C582.961 349.455 573.55 358.108 575.297 355.71C575.284 355.72 575.27 355.731 575.257 355.742ZM626.676 284.898C627.046 284.239 631 270.639 631.001 270.095C632.562 264.55 631.304 271.499 629.34 278.099C627.343 284.897 624.718 291.161 626.676 284.898ZM1059.25 1285.73C1051.22 1284.9 1059.17 1284.84 1064.48 1285.44C1064.91 1285.48 1066.33 1286.41 1059.25 1285.73ZM89.3021 437.454C88.6582 437.858 80.8364 444.206 75.1078 451.923C69.2337 459.508 65.4568 468.046 66.457 467.199C67.0626 465.659 72.7466 455.123 79.576 447.621C86.2584 439.968 93.2823 434.92 89.3021 437.454ZM196.9 698.741C189.971 691.137 198.425 698.671 201.535 703.157C202.704 704.798 198.632 700.657 196.9 698.741ZM1248.23 1256.95C1254.66 1252.56 1254.28 1255.03 1248.07 1257.83C1247.82 1257.94 1247.98 1257.12 1248.23 1256.95ZM135.454 651.569C159.133 664.127 151.045 665.437 122.722 644.725C123.688 645.26 124.687 645.806 125.642 646.308C94.5839 620.939 123.072 645.095 131.69 649.961C134.87 651.954 132.522 649.785 135.435 651.552C135.441 651.558 135.448 651.563 135.454 651.569ZM226.082 743.875C237.271 775.71 213.877 715.548 198.809 702.749C211.243 716.048 223.457 736.319 206.24 709.179C220.191 728.152 222.153 735.045 222.706 736.051C223.068 737.219 220.829 733.453 221.222 734.295C222.2 736.252 225.604 742.512 226.082 743.875ZM170.529 674.379C169.103 673.221 157.519 664.485 152.729 661.84C159.936 664.701 181.127 681.976 170.529 674.379ZM478.246 402.195C479.184 401.273 481.912 400.187 492.266 397.252C489.203 398.547 482.628 400.756 478.246 402.195ZM1634.84 942.702C1633.86 949.336 1633.17 960.293 1633.98 956.928C1633.86 956.87 1635.08 942.971 1634.84 942.702ZM57.32 544.035C56.6506 545.399 66.9368 576.419 63.9715 565.514C62.252 562.37 55.7434 533.8 57.32 544.035ZM125.561 418.296C122.938 418.892 113.222 422.606 113.114 422.932C112.61 423.524 124.45 418.923 125.561 418.296ZM1633.68 968.337C1633.68 968.438 1633.9 969.329 1634.13 969.833L1634.38 970.472C1636.54 976.252 1640.02 984.326 1639.67 982.912C1639.03 980.577 1636.64 974.832 1634.78 970.321L1634.53 969.671C1634.12 969.054 1633.64 967.731 1633.68 968.337ZM1029.94 1284.23C1028.25 1284.04 1026.12 1283.08 1025.54 1282.99C1024.14 1283 993.541 1278.16 1005.36 1279.27C1007.25 1279.87 1051.4 1285.96 1057.2 1286.03C1059.35 1287.18 1040.48 1284.62 1035.87 1284.09C1035.06 1284.01 1034.45 1284.73 1029.95 1284.23C1029.95 1284.23 1029.94 1284.23 1029.94 1284.23ZM531.69 382.304C532.931 382.121 569.958 359.753 569.462 359.715C557.459 368.708 544.585 376.148 531.69 382.304ZM512.093 390.506C503.741 393.239 522.847 385.861 528.659 383.191C528.912 383.642 513.271 390.255 512.093 390.506ZM76.3493 446.57C74.4791 448.926 81.2464 442.552 80.0009 444.231C79.1352 445.219 74.5584 450.128 73.5462 452.063C73.2249 452.564 78.0526 447.683 79.3654 446.277C81.199 444.192 78.8946 445.745 80.9825 443.516C87.9966 436.213 95.6336 431.147 104.025 426.576C104.793 426.151 98.6197 429.011 105.193 425.452C106.279 424.903 112.623 422.268 121.256 419.35C139.888 411.532 155.991 411.457 183.335 413.034C183.726 413.063 184.119 413.091 184.514 413.119C184.382 413.084 183.972 413.02 183.345 412.932C178.663 412.06 162.376 411.24 161.211 411.418C137.907 410.218 99.2626 422.241 84.2149 438.462C80.1685 442.283 82.4377 440.756 80.7518 442.461C79.471 443.858 80.3273 441.575 76.3493 446.57ZM1634.83 939.22C1633.59 942.265 1632.82 953.003 1632.77 958.526C1633.42 956.752 1633.66 946.172 1634.83 939.22ZM335.825 419.258C331.932 419.419 320.217 419.367 319.256 419.606C317.993 419.969 334.972 419.871 335.825 419.258ZM864.471 1234.58C864.136 1234.46 856.919 1230.5 856.634 1230.28C850.434 1226.18 872.252 1238.11 864.471 1234.58ZM728.068 1086.92C723.068 1081.52 717.674 1076.45 716.376 1074.24C719.696 1077.55 729.023 1087.22 728.068 1086.92ZM432.47 1017.06C433.512 1017.03 427.027 1020.87 420.905 1025.14C417.212 1027.69 413.591 1030.08 412.295 1030.95C412.729 1030.43 416.497 1027.55 420.51 1024.59C425.875 1020.62 431.752 1017.1 432.47 1017.06ZM476.055 399.978C488.975 396.498 485.89 395.947 494.06 394.04C495.35 393.69 500.534 395.054 486.208 398.327C483.605 398.855 493.411 395.501 476.055 399.978ZM118.216 641.247C115.684 640.029 109.015 634.236 104.877 630.147C106.02 630.776 114.877 638.812 118.216 641.247ZM1645.72 998.919C1647.08 1004.44 1659.74 1024.96 1657.22 1019.5C1656.68 1018.89 1647.06 1002.26 1645.72 998.919ZM1160.98 1284.26C1150.67 1286.27 1172.2 1283.65 1178.74 1281.63C1175.68 1282.32 1161.74 1284.17 1160.98 1284.26ZM509.534 992.198C508.926 992.167 495.548 993.944 494.956 994.137C489.438 994.842 496.101 993.345 502.679 992.503C509.255 991.643 515.674 991.382 509.534 992.198ZM770.786 1150.39C770.608 1150.14 770.37 1149.75 770.088 1149.25L769.83 1148.73C766.14 1141.61 752.772 1119.43 749.288 1114.25C753.054 1117.94 767.236 1140.9 770.269 1148.5L770.533 1149.03C771.14 1150.52 771.32 1151.15 770.786 1150.39ZM423.444 411.018C432.357 409.669 441.462 408.249 449.76 406.813C448.196 407.722 424.317 411.348 423.444 411.018ZM461.281 1003.59C460.598 1003.85 459.918 1004.06 459.267 1004.31C459.951 1004.06 460.624 1003.82 461.281 1003.59ZM219.945 415.072C212.37 414.352 213.877 415.259 214.347 415.322C220.056 416.013 228.504 415.86 219.945 415.072ZM1632.71 946.903C1631.68 949.209 1631.37 960.241 1631.75 964.537C1632.01 963.606 1632.04 952.429 1632.71 946.903ZM236.618 777.858C238.969 788.05 225.883 747.559 221.004 739.471C222.057 738.326 237.258 776.17 236.618 777.858ZM1192.9 1279.61C1193.78 1280.08 1207.86 1275.74 1204.77 1276.25C1202.8 1276.66 1192.47 1279.38 1192.9 1279.61ZM210.366 720.291C208.055 716.954 202.735 708.893 205.034 711.413C208.048 714.653 211.004 721.15 210.366 720.291ZM55.887 485.257C55.152 486.416 52.7707 503.781 54.541 496.734C55.768 491.887 55.2005 491.005 55.4396 489.837C55.242 488.326 64.9234 462.494 55.887 485.257ZM233.27 998.203C233.807 990.384 235.087 981.236 236.038 972.955C235.965 976.411 234.012 994.949 233.27 998.203ZM1135.62 1288.17C1137.55 1288.88 1186.72 1282.33 1158.7 1285.47C1157.17 1285.86 1130.05 1288.01 1135.62 1288.17ZM476.055 399.978C474.473 400.391 472.635 400.84 470.481 401.321C472.611 400.811 474.457 400.372 476.055 399.978ZM330.599 417.978C333.476 417.513 318.813 417.686 314.451 417.9C313.163 418.443 330.085 418.084 330.599 417.978ZM235.535 972.273C235.836 967.632 237.134 958.861 237.786 953.06C238.061 954.055 236.145 970.38 235.535 972.273ZM401.247 1040.68C393.508 1045.64 384.156 1051.6 384.251 1052.07C384.053 1052.11 383.64 1052.27 382.981 1052.58C382.322 1052.92 374.198 1058.05 370.512 1059.89C348.828 1073.35 452.414 1006.11 393.266 1046.98C395.934 1044.91 398.593 1042.81 401.247 1040.68ZM787.665 1177.96C790.132 1182.07 800.007 1191.27 797.754 1188.59C795.94 1186.82 785.029 1174 787.665 1177.96ZM642.004 1022.93C643.547 1023.73 657.605 1031.31 658.06 1031.35C650.456 1026.19 635.156 1018.83 642.004 1022.93ZM813.554 1204.47C815.874 1206.5 819.599 1208.23 819.333 1207.97C816.996 1205.78 809.917 1200.77 813.554 1204.47ZM449.097 403.659C444.035 404.485 427.388 408.008 424.055 409.059C423.374 409.041 421.567 409.16 418.239 409.441C418.249 409.44 418.259 409.438 418.269 409.437C413.685 412.254 280.8 418.269 370.012 415.038C372.79 414.872 369 414.641 380.244 413.857C380.98 413.803 381.395 414.221 383.756 414.04C389.243 413.773 417.711 410.788 423.402 409.394C423.462 409.468 423.842 409.492 424.633 409.446C431.581 409.194 453.258 403.102 449.097 403.659ZM613.08 1009.81C616.079 1011.09 625.503 1014.96 626.625 1015.08C622.143 1012.68 606.203 1006.73 613.08 1009.81ZM1137.29 1289.66C1143.01 1289.62 1157.47 1287.36 1153.05 1287.53C1150.4 1287.76 1130.66 1289.84 1137.29 1289.66ZM699.638 1062.36C671.064 1038.3 692.773 1056.68 687.992 1053.5C691.938 1056.36 695.825 1059.31 699.638 1062.36ZM602.078 323.758C597.99 328.834 601.889 322.199 606.329 316.58C607.741 314.81 604.366 320.897 602.078 323.758ZM579.774 64.7021C580.52 67.1263 578.133 62.9501 576.104 59.113C574.19 55.4748 572.748 52.3109 575.262 56.0281C575.412 56.216 579.663 64.3869 579.774 64.7021ZM630.629 241.868C630.949 246.274 631.13 248.877 628.914 261.034C631.373 243.071 628.739 259.675 630.629 241.868ZM384.373 1052.09C384.309 1052.09 384.256 1052.1 384.251 1052.07C384.319 1052.06 384.356 1052.07 384.373 1052.09ZM837.88 1221.97C840.938 1224.72 850.689 1230.48 848.094 1228.25C847.83 1228.07 839.477 1222.55 837.88 1221.97ZM424.055 409.059C424.658 409.074 424.37 409.186 423.402 409.394C423.344 409.323 423.586 409.213 424.055 409.059ZM791.989 1184.42C792.435 1184.52 782.13 1171.83 781.916 1171.29C775.833 1164.23 787.135 1179.58 791.989 1184.42ZM1246.84 1263.44C1247.55 1263.02 1242.29 1264.51 1239.49 1266.25C1237.32 1267.63 1244.16 1265.1 1246.84 1263.44ZM628.853 201.911C628.053 195.462 626.365 186.493 626.572 184.919C627.36 188.735 629.349 202.09 628.853 201.911ZM583.596 73.3466C587.486 79.2565 594.889 93.9463 599.149 103.677C598.638 104.182 586.971 78.9002 583.596 73.3466ZM465.478 400.387C465.023 400.531 449.713 403.616 451.97 403.669C455.074 403.932 469.854 399.679 465.478 400.387ZM1223.45 1272.76C1219.39 1274.43 1225.42 1273.18 1230.99 1271.05C1233.09 1270.25 1235.12 1269.31 1236.57 1268.41C1238.01 1267.5 1234.45 1268.9 1230.68 1270.22C1227.39 1271.39 1223.88 1272.58 1223.45 1272.76ZM868.381 1240.26C875.844 1243.67 858.003 1233.99 855.38 1233.01C858.624 1234.9 865.683 1239.05 868.381 1240.26ZM663.924 1037.51C687.193 1055.38 675.768 1043.94 671.339 1041.12C670.718 1040.71 663.349 1037.07 663.924 1037.51ZM1676.16 1049.42C1678.54 1051.44 1670.81 1042.72 1669.47 1041.75C1668.53 1041.3 1674.6 1048.34 1676.16 1049.42ZM270.822 1088.38C271.85 1088.36 272.872 1088.33 273.885 1088.29C273.126 1088.34 272.127 1088.38 270.822 1088.38ZM937.341 1269.93C920.394 1262.16 921.792 1264.28 920.249 1263.8C917.021 1262.67 909.58 1259.33 903.533 1257.07C910.535 1259.51 917.704 1261.82 924.829 1263.92C918.972 1262.58 872.257 1242.23 871.601 1241.5C869.949 1241.36 884.413 1248.01 884.892 1248.19C885.493 1248.53 887.138 1250.91 888.484 1251.56C890.465 1253.06 930.635 1268.03 937.341 1269.93ZM711.904 1075.52C708.649 1072.1 708.064 1070.76 706.361 1069.37C705.778 1068.9 705.306 1069.24 703.322 1067.63C706.231 1070.21 709.091 1072.84 711.904 1075.52ZM969.884 1276.53C974.811 1278.49 952.053 1272.55 951.412 1272.17C947.663 1270.68 965.824 1275.08 969.884 1276.53ZM797.33 1190.79C797.671 1191.45 810.13 1203.19 810.351 1202.66C806.841 1199.73 790.988 1183.7 797.33 1190.79ZM700.953 1065.56C695.779 1060.77 685.663 1051.99 686.319 1053.65C686.327 1053.65 686.336 1053.66 686.344 1053.66C691.331 1057.48 696.205 1061.45 700.953 1065.56ZM1203.99 1280.59C1215.47 1278.83 1209.69 1278.76 1199.86 1280.83C1197.05 1282.16 1202.16 1280.86 1203.99 1280.59ZM1238.32 1270.04C1241.53 1269.79 1268.16 1253.44 1263.54 1255.11C1262.14 1256.07 1247.11 1265.71 1246.23 1265.83C1245.08 1266.3 1249.8 1263.12 1241.38 1267.41C1242.01 1267.44 1237.36 1270.39 1238.32 1270.04ZM1213.36 1278.86C1224.42 1276.54 1226.27 1273.73 1218.15 1276.45C1215.05 1277.44 1211.78 1279.18 1213.36 1278.86ZM1167.72 1288.76C1171.79 1288.36 1182.87 1286.73 1190.01 1284.48C1180.19 1286.56 1170.12 1288.22 1159.95 1289.5C1158.82 1290.02 1164.12 1289.16 1167.75 1288.76C1167.74 1288.76 1167.73 1288.76 1167.72 1288.76ZM541.178 11.768C546.154 20.3303 533.437 1.39649 532.879 0.441243C531.616 -2.23262 538.999 7.96316 541.178 11.768ZM1729.43 1079.41C1731.87 1078.83 1733.79 1079.03 1738.79 1076.38C1733.4 1078.27 1727.85 1079.61 1722.4 1080.2C1718.4 1082.23 1726.7 1080.18 1729.43 1079.41ZM1751.31 1074.06C1750.6 1074.45 1755.54 1073.94 1745.45 1078.14C1741.92 1079.42 1749.25 1075.59 1757.18 1069.73C1765.2 1063.99 1773.94 1055.91 1776.69 1053.78C1771.41 1059.72 1757.46 1070.35 1751.31 1074.06ZM1807.8 1031.03C1808.23 1030.86 1798.71 1043.01 1797.32 1044.29C1790.78 1051.07 1805.76 1032.77 1807.8 1031.03ZM1773.6 1067.24C1779.48 1062.68 1767.12 1073.64 1762.81 1076.15C1762.34 1076.23 1772.87 1067.98 1773.6 1067.24ZM566.26 109.883C568.36 117.283 573.569 122.197 568.238 111.941C567.981 111.449 566.177 109.563 566.26 109.883ZM1799.65 1044.07C1794.6 1049.41 1805.01 1036.92 1808.03 1033.17C1808.59 1033.11 1800.54 1043.23 1799.65 1044.07ZM565.785 115.972C569.043 125.291 570.361 120.877 569.988 119.717C568.515 115.028 559.438 99.0892 557.662 96.4429C569.787 119.739 564.134 111.623 565.785 115.972ZM584.376 157.437C587.631 166.076 580.712 143.626 578.126 139.915C579.897 144.208 583.415 154.713 584.376 157.437ZM595.576 210.895C596.113 215.298 596.427 229.9 596.718 231.983C596.882 227.117 596.388 212.604 595.576 210.895ZM594.982 221.684C594.606 229.071 596.522 230.79 595.695 222.298C595.658 221.965 595.004 221.409 594.982 221.684ZM590.826 261.787C589.016 265.97 589.209 271.625 591.335 264.386C591.912 262.243 591.022 261.332 590.826 261.787ZM567.733 128.382C570.264 135.105 575.126 143.486 569.201 128.908C571.552 133.878 573.842 138.978 575.928 143.871C569.146 124.649 567.773 126.985 565.596 121.723C562.386 114.387 563.947 114.273 565.087 115.572C561.473 109.595 548.788 84.4989 540.222 70.3258C547.187 83.0571 557.299 103.703 563.126 117.109C564.757 120.801 566.7 124.136 567.98 127.203C570.009 132.104 567.6 128.016 567.722 128.357C567.726 128.365 567.729 128.374 567.733 128.382ZM567.401 307.393C557.568 316.875 564.957 311.917 569.628 305.767C569.819 305.502 567.642 307.157 567.401 307.393ZM1817.22 1031.04C1802.98 1047.28 1814.25 1035.57 1782.96 1069.16C1796.22 1055.06 1783.22 1067.9 1785.64 1064.97C1787.66 1062.66 1795.62 1054.83 1790.63 1058.97C1797.82 1053.67 1820.09 1024.95 1820.88 1023.37C1820.87 1023.38 1820.86 1023.39 1820.85 1023.41C1821.49 1022.62 1821.47 1025.74 1817.22 1031.04ZM590.767 211.48C588.956 216.14 592.834 217.898 591.213 227.052C594.861 239.287 588.907 193.147 588.557 187.573C597.814 237.822 583.756 153.823 587.83 189.673C581.998 160.326 585.113 180.292 583.608 175.921C582.114 171.645 577.327 155.265 576.709 156.298C576.712 156.307 576.716 156.316 576.719 156.325C580.281 166.524 583 175.527 585.464 185.847C584.943 175.78 589.213 195.857 588.582 203.184C589.376 205.985 590.104 208.75 590.767 211.48ZM579.167 154.942C579.744 156.136 586.446 177.399 586.216 175.823C586.203 173.26 575.436 142.381 579.167 154.942ZM535.593 64.5683C539.758 71.5933 545.645 82.8724 548.438 86.6742C544.375 79.0684 538.499 68.1236 535.593 64.5683ZM437.185 367.941C427.081 370.532 458.509 364.327 449.275 365.54C448.713 365.667 437.734 367.846 437.185 367.941ZM592.072 233.622C590.93 243.6 593.46 238.895 593.039 231.582C593.012 231.168 592.118 233.187 592.072 233.622ZM1806.7 1044.84C1806.89 1046.09 1785.15 1069.05 1780.21 1072.5C1783.1 1070.34 1807.15 1044.14 1806.7 1044.84ZM526.259 52.9401C533.577 68.3518 545.93 86.1773 547.141 88.649C548.252 90.8264 545.698 87.8457 545.941 88.3474C546.706 89.5866 558.188 112.005 558.774 113.443C559.203 114.24 558.244 109.467 560.89 114.171C556.199 104.545 533.873 63.3832 532.144 61.4284C531.029 59.8094 537.548 72.9726 526.275 52.9652C526.27 52.9569 526.265 52.9484 526.259 52.9401ZM549.77 94.1563C547.298 88.3475 555.464 103.847 557.244 108.083C561.188 117.028 550.182 94.7936 549.77 94.1563ZM567.761 133.216C568.638 135.312 575.116 152.357 575.98 153.48C574.053 145.507 566.182 128.719 567.761 133.216ZM557.415 312.521C554.576 315.637 544.776 323.08 544.513 323.742C548.118 321.14 557.4 313.381 557.415 312.521ZM1711.25 1106.97C1722.35 1107.22 1696.45 1107.88 1689.36 1104.63C1688.91 1104.84 1710.26 1107.65 1711.25 1106.97ZM587.409 235.134C587.288 236.524 586.931 250.277 583.249 263.468C579.812 276.932 572.649 289.149 570.748 292.103C572.848 289.379 580.195 277.373 583.796 264.015C587.623 250.972 588.072 237.287 588.035 236.022C588.012 235.314 587.444 234.799 587.409 235.134ZM558.29 119.98C555.435 115.491 554.639 111.923 554.352 111.301C551.456 104.975 545.317 93.5751 547.223 95.7601C552.283 105.597 564.053 129.112 558.29 119.98ZM552.556 312.701C539.801 324.636 564.914 302.378 560.864 304.651C560.732 304.869 553.899 311.572 552.556 312.701ZM587.299 229.356C588.726 225.587 579.703 171.445 575.322 163.139C578.846 170.695 579.837 176.706 582.388 187.447C583.036 190.258 583.29 189.408 583.359 189.711C584.399 194.533 583.148 191.032 583.739 193.983C585.119 195.814 588.956 235.162 587.299 229.356ZM556.568 117.446C554.947 114.231 538.409 82.8128 537.304 81.1257C532.987 71.2323 555.853 114.308 556.568 117.446ZM586.297 234.027C585.731 228.861 584.194 202.176 586.272 220.228C586.466 222.019 586.21 229.33 586.297 234.027ZM553.094 310.593C552.751 311.312 538.398 322.621 538.169 322.916C540.895 321.99 560.489 304.349 553.094 310.593ZM558.559 303.079C558.251 303.391 561.695 300.881 555.933 306.867C555.363 307.326 554.196 307.843 546.389 314.954C544.787 316.393 542.415 318.943 542.648 318.802C553.543 313.5 571.668 286.576 558.559 303.079ZM555.664 117.137C556.165 119.052 553.23 115.267 551.804 111.127C551.186 109.344 553.333 112.22 555.664 117.137ZM502.866 341.652C513.198 336.837 479.918 349.901 478.08 350.048C479.289 350.349 502.048 342.369 502.866 341.652ZM1684.28 1107.95C1684.29 1107.96 1684.3 1107.96 1684.31 1107.96C1670.76 1102.99 1679.4 1105.46 1678.74 1105.27C1664.87 1099.11 1661.02 1095.59 1658.92 1094.65C1656.97 1093.58 1657.41 1094.3 1655.56 1093.05C1647.86 1087.45 1649.6 1087.48 1638.5 1077.19C1657.26 1094.1 1640.3 1078.54 1640.33 1077.58C1639.16 1074.3 1664.36 1101.68 1679.78 1105.15C1681.49 1105.94 1668.72 1099.52 1673.32 1101.38C1687.02 1109.79 1740.21 1116.56 1684.28 1107.95ZM550.234 108.146C548.15 104.7 531.357 72.7683 536.377 80.8859C537.678 82.5082 554.213 113.716 550.234 108.146ZM406.261 1094.21C398.571 1099.52 417.38 1088.82 420.359 1086.23C421.907 1085 409.683 1091.92 406.261 1094.21ZM523.126 1043C531.931 1042.54 541.59 1040.84 530.337 1040.86C529.112 1040.84 522.075 1042.7 523.126 1043ZM172.888 753.888C176.615 762.252 177.631 761.136 174.412 755.197C173.233 753.125 172.763 753.628 172.888 753.888ZM274.36 1136.17C275.616 1136.29 289.671 1135.3 289.105 1134.92C283.98 1135.34 266.421 1136.01 274.36 1136.17ZM171.221 751.503C174.231 756.054 170.467 747.281 165.671 742.639C167.751 745.265 170.926 751.011 171.221 751.503ZM581.057 252.59C581.022 257.147 577.622 269.069 574.787 275.361C574.071 275.925 580.768 257.932 581.057 252.59ZM486.373 1048.46C494.107 1045.38 477.049 1050.48 478.913 1050.8C479.13 1050.71 486.045 1048.54 486.373 1048.46ZM17.7745 446.171C14.2652 454.13 27.5161 429.871 23.2754 436.212C22.9757 436.484 17.8733 445.685 17.7745 446.171ZM107.4 369.624C101.185 370.659 75.5817 382.84 85.7418 378.541C87.0772 377.557 107.05 369.845 107.4 369.624ZM1654.58 1093.05C1656.86 1096.16 1640.2 1082.16 1638.68 1079.71C1637.81 1078.97 1650.92 1089.41 1654.58 1093.05ZM192.127 811.788C193.119 816.794 194.276 830.053 194.814 832.451C194.403 826.032 192.804 809.978 192.127 811.788ZM452.61 1064.93C459.009 1061.47 469.828 1055.87 466.619 1056.22C454.773 1062.87 468.355 1055.86 452.61 1064.93ZM151.911 728.458C154.537 731.187 157.251 732.57 157.015 732.221C154.674 728.833 149.509 725.478 151.911 728.458ZM180.877 1036.57C180.261 1036.86 181.106 1053.2 181.397 1051.1C181.32 1050.08 181.18 1036.39 180.877 1036.57ZM465.189 351.092C459.022 352.34 477.418 346.839 482.488 345.511C485.358 345.457 466.162 351.04 465.189 351.092ZM52.0885 649.215C50.8568 649.345 68.7509 667.832 62.2058 660.051C60.4919 658.18 52.4136 649.341 52.0885 649.215ZM36.7069 413.895C31.1583 421.58 40.3958 409.526 51.6099 399.865C62.73 390.022 75.2826 382.711 66.2295 387.826C64.3394 387.65 36.878 411.796 36.7069 413.895ZM147.531 360.8C144.373 361.037 146.033 358.188 158.346 358.643C159.967 358.696 152.403 359.626 153.743 359.726C154.525 359.384 181.343 360.061 182.52 360.454C183.854 360.488 182.344 359.606 183.703 359.621C184.151 359.628 185.879 359.796 188.342 360.096C193.461 360.75 202.144 361.86 207.411 362.292C221.373 363.43 223.056 362.853 224.19 362.942C227.566 363.176 233.201 364.016 239.971 364.415C274.338 366.706 326.608 366.552 353.459 366.229C329.747 366.88 306.42 367.617 282.573 367.226C289.618 366.169 247.186 367.065 271.959 366.408C264.735 366.517 220.694 364.599 188.222 361.358C167.756 359.361 151.113 360.608 147.565 360.797C147.554 360.798 147.542 360.799 147.531 360.8ZM558.287 1046.22C552.719 1045.71 580.661 1051.74 583.244 1052.16C579.681 1050.54 558.982 1045.96 558.287 1046.22ZM437.271 1080C434.698 1081.89 433.287 1085.01 418.559 1093.54C418.546 1093.54 418.533 1093.55 418.52 1093.56C414.185 1096.03 418.772 1092.66 417.926 1093.03C417.645 1093.19 403.98 1100.72 414.898 1093.79C431.273 1083.06 417.136 1093.82 425.872 1088.15C427.013 1087.48 442.568 1075.82 441.48 1076.29C441.378 1076.34 436.701 1079.79 435.855 1080.27C432.679 1082.08 433.862 1080.66 433.425 1080.93C432.195 1081.9 406.457 1099.56 401.825 1101.09C400.974 1102 443.366 1073.66 444.556 1072.49C445.605 1071.85 445.979 1073.28 447.095 1072.66C447.292 1072.55 449.358 1071.04 452.031 1069.07C456.12 1065.95 462.244 1062.09 463.505 1061.52C464.049 1061.25 464.471 1061.06 464.782 1060.93C462.385 1061.6 475.349 1055.11 475.194 1055.91C475.018 1056.09 466.028 1060.34 465.756 1060.55C465.613 1060.61 465.485 1060.66 465.367 1060.71C466.459 1060.43 458.493 1064.83 452.342 1069.5C445.733 1074.38 440.164 1078.46 443.869 1076.32C433.98 1083.7 444.675 1074.39 437.271 1080ZM385.359 1112.66C386.507 1111.91 387.643 1111.16 388.774 1110.39C371.554 1119.83 350.08 1128.77 326.193 1133.8C322.464 1134.58 318.704 1135.31 314.922 1135.99C308.231 1137.14 316.102 1136.75 307.241 1137.92C300.123 1138.83 292.079 1138.79 295.956 1138.2C296.916 1138.12 311.464 1136.72 318.532 1135.2C321.616 1134.58 324.111 1134.02 326.137 1133.54C338.654 1130.36 334.531 1130.61 335.642 1130.36C337.074 1130.04 350.735 1126.49 357.714 1123.63C375.23 1116.52 382.793 1112.46 404.388 1100.68C392.327 1108.21 399.755 1105.41 385.359 1112.66ZM2.97881 551.673C2.19668 550.851 0.256687 534.868 0 528.972C0.397795 529.876 1.64338 545.961 2.97881 551.673ZM1407.69 1081.19C1407.87 1076.81 1400.81 1108.32 1403.26 1100.15C1403.84 1098.34 1406.88 1085.14 1407.69 1081.19ZM1358.68 1224.13C1356.45 1228.34 1366.72 1212.15 1366.02 1211.81C1365.91 1211.78 1359.06 1223.63 1358.68 1224.13ZM180.896 981.2C180.945 980.415 182.457 968.63 182.547 968.27C184.225 960.579 179.488 999.204 180.896 981.2ZM1202.71 1332.87C1218.22 1329.15 1171.19 1338.37 1185.68 1336.19C1186.47 1336.15 1201.88 1333.16 1202.71 1332.87ZM1137.42 1342.29C1141.12 1342.08 1157.82 1340.72 1158 1340.4C1158.3 1340.06 1139.24 1341.59 1137.42 1342.29ZM148.007 728.806C148.626 730.374 136.36 718.546 131.375 715.595C130.793 713.892 144.151 724.781 148.007 728.806ZM189.298 826.963C184.793 788.297 177.546 776.379 179.208 778.393C180.189 780.692 187.939 798.513 190.136 831.586C189.567 831.73 189.796 831.879 189.298 826.963ZM157.86 740.343C159.972 741.963 164.565 748.394 167.303 753.043C166.513 752.315 160.538 743.253 157.86 740.343ZM1416.29 1044C1416.01 1049.54 1410.39 1073.47 1410.93 1069.13C1411.12 1068.11 1416.3 1041.93 1416.29 1044ZM180.961 973.733C179.855 975.573 183.283 949.445 183.695 947.61C185.409 939.709 181.013 971.348 180.961 973.733ZM48.3749 651.054C44.3675 647.472 35.398 635.114 30.3133 626.767C33.0454 630.325 42.9527 644.839 48.3749 651.054ZM100.074 697.795C99.4905 697.546 88.6007 689.813 88.1358 689.315C79.5387 682.442 110.536 704.349 100.074 697.795ZM1703.86 1118.24C1703.25 1118.47 1689.76 1116.4 1689.4 1116.04C1683.66 1114.23 1690.47 1116.1 1697.33 1117.07C1704.17 1118.07 1710.86 1118.25 1703.86 1118.24Z" fill="var(--stroke-0, #F7F8FC)"/>
</svg>
