<svg preserveAspectRatio="none" width="100%" height="100%" overflow="visible" style="display: block;" viewBox="0 0 33.4717 33.4717" fill="none" xmlns="http://www.w3.org/2000/svg">
<g id="BookOpen">
<path id="Vector" d="M16.7358 9.76265V29.2878" stroke="var(--stroke-0, #4385F6)" stroke-width="1.64077" stroke-linecap="round" stroke-linejoin="round"/>
<path id="Vector_2" d="M4.18411 25.1038C3.81422 25.1038 3.45949 24.9568 3.19794 24.6953C2.93639 24.4337 2.78946 24.079 2.78946 23.7091V5.57861C2.78946 5.20872 2.93639 4.85399 3.19794 4.59244C3.45949 4.33089 3.81422 4.18395 4.18411 4.18395H11.1574C12.6369 4.18395 14.0559 4.7717 15.1021 5.81789C16.1483 6.86409 16.736 8.28303 16.736 9.76257C16.736 8.28303 17.3237 6.86409 18.3699 5.81789C19.4161 4.7717 20.8351 4.18395 22.3146 4.18395H29.2879C29.6578 4.18395 30.0125 4.33089 30.2741 4.59244C30.5356 4.85399 30.6825 5.20872 30.6825 5.57861V23.7091C30.6825 24.079 30.5356 24.4337 30.2741 24.6953C30.0125 24.9568 29.6578 25.1038 29.2879 25.1038H20.92C19.8103 25.1038 18.7461 25.5446 17.9615 26.3292C17.1768 27.1139 16.736 28.1781 16.736 29.2877C16.736 28.1781 16.2952 27.1139 15.5105 26.3292C14.7259 25.5446 13.6617 25.1038 12.552 25.1038H4.18411Z" stroke="var(--stroke-0, #4385F6)" stroke-width="1.64077" stroke-linecap="round" stroke-linejoin="round"/>
</g>
</svg>
