<svg preserveAspectRatio="none" width="100%" height="100%" overflow="visible" style="display: block;" viewBox="0 0 32 32" fill="none" xmlns="http://www.w3.org/2000/svg">
<g id="arcticons:telegram">
<path id="Vector" d="M27.2197 5.65365C27.9797 5.65365 28.5531 6.32031 28.2464 7.56031L24.5264 25.0936C24.2664 26.3403 23.5131 26.6403 22.4731 26.0603L13.5997 19.507C13.5653 19.4823 13.5373 19.4498 13.5179 19.4121C13.4986 19.3744 13.4885 19.3327 13.4885 19.2903C13.4885 19.248 13.4986 19.2062 13.5179 19.1685C13.5373 19.1309 13.5653 19.0983 13.5997 19.0736L23.8464 9.82031C24.3131 9.40698 23.7464 9.20698 23.1331 9.58031L10.2731 17.6936C10.2341 17.7191 10.1898 17.7353 10.1436 17.7411C10.0974 17.7469 10.0505 17.742 10.0064 17.727L4.5464 16.0003C3.33307 15.647 3.33307 14.8136 4.81973 14.2203L26.6664 5.79365C26.8399 5.71119 27.0279 5.66363 27.2197 5.65365Z" stroke="var(--stroke-0, #9CC7EE)" stroke-width="1.33333" stroke-linecap="round" stroke-linejoin="round"/>
</g>
</svg>
